# xmcd
#
# Track frame offsets:
#	150
#	13901
#	28902
#	40233
#	49470
#	61083
#	73908
#	91509
#	104831
#	118252
#	131167
#	145947
#	158074
#	173578
#	185557
#
# Disc length: 2685 seconds
#
# Revision: 1
# Processed by: cddbd v1.5.1PL0 Copyright (c) Steve Scherf et al.
# Submitted via: CDex 1.50Beta5
#
DISCID=dd0a7b0f
DTITLE=THE STAR CLUB - THE STAR CLUB BEST
DYEAR=1900
DGENRE=
TTITLE0=THE BIBLE
TTITLE1=SAMENIGHT
TTITLE2=D.K.G
TTITLE3=MAKE MERRY
TTITLE4=BODIES
TTITLE5=HELLO NEW PUNKS
TTITLE6=RADICAL REAL ROCKS
TTITLE7=偶像破壊者
TTITLE8=POWER TO  THE PUNKS
TTITLE9=GO AHEAD
TTITLE10=DEAD MARCH
TTITLE11=LOOPHOLE
TTITLE12=URBAN GUERRILA
TTITLE13=THE LAST RIGHT(最終権利)
TTITLE14=冗談本気
EXTD=
EXTT0=
EXTT1=
EXTT2=
EXTT3=
EXTT4=
EXTT5=
EXTT6=
EXTT7=
EXTT8=
EXTT9=
EXTT10=
EXTT11=
EXTT12=
EXTT13=
EXTT14=
PLAYORDER=
